<svg width="38" height="38" viewBox="0 0 38 38" fill="none" xmlns="http://www.w3.org/2000/svg">
<circle cx="19" cy="19" r="19" fill="#EFEFEF"/>
<path d="M24.9002 15.6075L14.8603 10.2324C14.3385 9.95312 13.7728 9.93884 13.2831 10.1174L21.8367 18.6709L24.9002 15.6075Z" fill="#0EA958"/>
<path d="M28.644 17.6118L25.752 16.0635L22.4906 19.3249L25.752 22.5863L28.644 21.038C30.012 20.3056 30.012 18.3442 28.644 17.6118Z" fill="#0EA958"/>
<path d="M12.5001 10.6426C12.1933 10.9798 11.9999 11.4299 11.9999 11.9456V26.7047C11.9999 27.2204 12.1933 27.6706 12.5 28.0077L21.1826 19.3252L12.5001 10.6426Z" fill="#0EA958"/>
<path d="M13.2831 28.5334C13.7728 28.7119 14.3385 28.6977 14.8603 28.4183L24.9002 23.0432L21.8368 19.9798L13.2831 28.5334Z" fill="#0EA958"/>
</svg>
