<svg width="38" height="38" viewBox="0 0 38 38" fill="none" xmlns="http://www.w3.org/2000/svg">
<circle cx="19" cy="19" r="19" fill="#EFEFEF"/>
<path d="M22.3585 8C22.4064 8 22.4544 8 22.505 8C22.6226 9.45245 22.0682 10.5377 21.3944 11.3236C20.7333 12.1041 19.828 12.8611 18.3638 12.7463C18.2661 11.3146 18.8214 10.3098 19.4943 9.52571C20.1183 8.79496 21.2624 8.1447 22.3585 8Z" fill="#494949"/>
<path d="M26.7911 23.1175C26.7911 23.132 26.7911 23.1447 26.7911 23.1582C26.3796 24.4045 25.7927 25.4726 25.0764 26.4638C24.4225 27.3637 23.6212 28.5746 22.1905 28.5746C20.9542 28.5746 20.133 27.7797 18.8659 27.758C17.5256 27.7363 16.7886 28.4227 15.5631 28.5955C15.4229 28.5955 15.2827 28.5955 15.1453 28.5955C14.2454 28.4652 13.5192 27.7526 12.9901 27.1104C11.43 25.213 10.2245 22.7621 10.0002 19.6257C10.0002 19.3182 10.0002 19.0116 10.0002 18.7041C10.0951 16.4594 11.1858 14.6343 12.6356 13.7498C13.4007 13.2796 14.4525 12.8789 15.6237 13.058C16.1256 13.1358 16.6384 13.3076 17.0879 13.4776C17.5139 13.6413 18.0466 13.9316 18.5512 13.9163C18.8931 13.9063 19.2331 13.7281 19.5777 13.6024C20.587 13.238 21.5764 12.8201 22.8805 13.0164C24.4479 13.2533 25.5603 13.9497 26.2476 15.0241C24.9218 15.8679 23.8736 17.1395 24.0526 19.311C24.2118 21.2834 25.3586 22.4374 26.7911 23.1175Z" fill="#494949"/>
</svg>
