<svg width="18" height="20" viewBox="0 0 18 20" fill="none" xmlns="http://www.w3.org/2000/svg">
<path d="M15.5 2.11001L10.51 0.240007C9.68 -0.0699927 8.32 -0.0699927 7.49 0.240007L2.5 2.11001C1.35 2.54001 0.410004 3.90001 0.410004 5.12001V12.55C0.410004 13.73 1.19 15.28 2.14 15.99L6.44 19.2C7.85 20.26 10.17 20.26 11.58 19.2L15.88 15.99C16.83 15.28 17.61 13.73 17.61 12.55V5.12001C17.59 3.90001 16.65 2.54001 15.5 2.11001ZM8.93 5.03001C10.11 5.03001 11.07 5.99001 11.07 7.17001C11.07 8.33001 10.16 9.26001 9.01 9.30001H8.99H8.97C8.95 9.30001 8.93 9.30001 8.91 9.30001C7.71 9.26001 6.81 8.33001 6.81 7.17001C6.8 5.99001 7.76 5.03001 8.93 5.03001ZM11.19 14.36C10.58 14.76 9.79 14.97 9 14.97C8.21 14.97 7.41 14.77 6.81 14.36C6.24 13.98 5.93 13.46 5.92 12.89C5.92 12.33 6.24 11.79 6.81 11.41C8.02 10.61 9.99 10.61 11.2 11.41C11.77 11.79 12.09 12.31 12.09 12.88C12.08 13.44 11.76 13.98 11.19 14.36Z" fill="white"/>
</svg>
